# xmcd
#
# Track frame offsets: 
#        150
#        20225
#        36322
#        53432
#        65550
#        79465
#        94312
#        109430
#        128987
#        141852
#        159080
#        174259
#        193507
#        205415
#        221372
#        240552
#        258180
#        276140
#
# Disc length: 3938 seconds
#
# Revision: 2
# Processed by: cddbd v1.5.2PL0 Copyright (c) Steve Scherf et al.
# Submitted via: ExactAudioCopy v0.99pb5
#
DISCID=060f6012
DTITLE=Various Artist - Hott Country 048
DYEAR=1999
DGENRE=Country
TTITLE0=Martina McBride - Love's the Only House
TTITLE1=Jennifer Day - Jennifer Day
TTITLE2=Sammy Kershaw - Sammy Kershaw
TTITLE3=Yankee Grey - Yankee Grey
TTITLE4=Julie Reeves - Julie Reeves
TTITLE5=Wynonna - Wynonna
TTITLE6=Andy Griggs - Andy Griggs
TTITLE7=Deana Carter - Deana Carter
TTITLE8=Doug Stone - Doug Stone
TTITLE9=Lila McCann - Lila Mccann
TTITLE10=Stompin' Tom Connors - Stompin' Tom Connors
TTITLE11=Alan Jackson With Jimmy Buffett - Alan Jackson With Jimmy Buf
TTITLE11=fett
TTITLE12=Lee Ann Womack - Lee Ann Womack
TTITLE13=Mavericks - Mavericks
TTITLE14=Trisha Yearwood - Trisha Yearwood
TTITLE15=Vince Gill With Patty Loveless - my Kind Of Man
TTITLE16=Jessica Andrews - Jessica Andrews
TTITLE17=Ronan Keating - Ronan Keating
EXTD=
EXTT0=
EXTT1=
EXTT2=
EXTT3=
EXTT4=
EXTT5=
EXTT6=
EXTT7=
EXTT8=
EXTT9=
EXTT10=
EXTT11=
EXTT12=
EXTT13=
EXTT14=
EXTT15=
EXTT16=
EXTT17=
PLAYORDER=
